<svg width="95" height="69" viewBox="0 0 95 69" fill="none" xmlns="http://www.w3.org/2000/svg">
<path d="M7.90966 65.2584C7.90966 67.0092 6.5321 68.2403 4.54843 68.2403H0V58.0889H3.62171C5.51021 58.0889 6.85771 59.2443 6.85771 60.9194C6.85771 61.6711 6.57719 62.2867 6.10131 62.7509C7.21337 63.1495 7.90966 64.0122 7.90966 65.2584ZM2.01373 59.875V62.1959H3.4514C4.318 62.1959 4.78386 61.7165 4.78386 61.0253C4.78386 60.319 4.318 59.8699 3.4514 59.8699H2.01373V59.875ZM5.85084 65.1828C5.85084 64.3957 5.30984 63.9063 4.39815 63.9063H2.01373V66.4593H4.39815C5.30984 66.4593 5.85084 65.98 5.85084 65.1828Z" fill="#2B2B2B"/>
<path d="M17.0253 66.9225H12.8426L12.2715 68.2444H10.0273L14.5958 57.9062H15.2921L19.8455 68.2444H17.6014L17.0253 66.9225ZM14.9364 61.7812L13.5739 65.2121H16.299L14.9364 61.7812Z" fill="#2B2B2B"/>
<path d="M21.959 63.1638C21.959 60.1819 24.3584 57.9014 27.4091 57.9014C29.3777 57.9014 31.0158 58.8701 31.9174 60.4241L30.3395 61.529C29.6582 60.4544 28.6965 59.8237 27.4141 59.8237C25.5106 59.8237 24.118 61.2061 24.118 63.1789C24.118 65.1315 25.5106 66.4988 27.4141 66.4988C28.7015 66.4988 29.6582 65.8681 30.3395 64.7934L31.9174 65.8984C31.0358 67.4524 29.3777 68.4211 27.3941 68.4211C24.3584 68.4262 21.959 66.1507 21.959 63.1638Z" fill="#2B2B2B"/>
<path d="M44.0054 57.9062V68.2444H41.9165V61.9527L35.9254 68.4311H35.2441V58.0929H37.333V64.3241L43.3091 57.9113H44.0054V57.9062Z" fill="#2B2B2B"/>
<path d="M68.5815 57.9062V68.2444H66.4927V61.9527L60.5016 68.4311H59.8203V58.0929H61.9092V64.3241L67.8853 57.9113H68.5815V57.9062Z" fill="#2B2B2B"/>
<path d="M71.8789 63.1638C71.8789 60.1819 74.2783 57.9014 77.329 57.9014C79.2976 57.9014 80.9357 58.8701 81.8374 60.4241L80.2594 61.529C79.5782 60.4544 78.6164 59.8237 77.334 59.8237C75.4305 59.8237 74.0379 61.2061 74.0379 63.1789C74.0379 65.1315 75.4305 66.4988 77.334 66.4988C78.6214 66.4988 79.5782 65.8681 80.2594 64.7934L81.8374 65.8984C80.9557 67.4524 79.2976 68.4211 77.314 68.4211C74.2783 68.4262 71.8789 66.1507 71.8789 63.1638Z" fill="#2B2B2B"/>
<path d="M91.1816 66.9225H86.9988L86.4277 68.2444H84.1836L88.7521 57.9062H89.4483L94.0018 68.2444H91.7576L91.1816 66.9225ZM89.0927 61.7812L87.7302 65.2121H90.4552L89.0927 61.7812Z" fill="#2B2B2B"/>
<path d="M52.2558 57.9062H51.5595L46.9961 68.2444H49.2403L51.9002 61.7812L54.5651 68.2444H56.8093L52.2558 57.9062Z" fill="#2B2B2B"/>
<path d="M65.0955 0.559956C63.8432 -0.0707252 62.4155 -0.171634 61.0881 0.272365C60.7775 0.37832 60.4869 0.509502 60.2064 0.66591C60.1463 0.630592 60.0912 0.595274 60.0261 0.565001C58.7738 -0.0656797 57.3461 -0.171634 56.0187 0.277411C54.6862 0.72141 53.6092 1.66491 52.983 2.92627L46.9919 14.9193L40.8856 2.92627C40.2595 1.66491 39.1775 0.72141 37.85 0.277411C36.5175 -0.166589 35.0949 -0.0656797 33.8426 0.565001C33.7775 0.595274 33.7224 0.635638 33.6622 0.670956C32.1995 -0.141361 30.3762 -0.24227 28.7732 0.565001C26.1834 1.87177 25.1314 5.05545 26.4288 7.66395L40.1493 35.0254C40.3296 35.4745 40.535 35.9134 40.7955 36.3271C42.1931 38.5774 44.5374 39.9195 47.0621 39.9195C49.6168 39.9195 51.9712 38.5572 53.3688 36.2716C53.5791 35.9235 53.7595 35.5653 53.9148 35.202C53.9298 35.1768 53.9498 35.1566 53.9649 35.1263L67.4398 7.66395C68.7372 5.05041 67.6853 1.86673 65.0955 0.559956ZM42.5537 27.0889L44.3621 23.325L45.94 26.4683L44.0966 30.3029L42.5537 27.0889ZM33.6522 2.54282C33.9728 2.8405 34.2483 3.19873 34.4537 3.61245L43.5005 21.6045L41.7072 25.3331L32.8507 6.97272C32.0943 5.449 32.47 3.64777 33.6522 2.54282ZM46.9469 17.9516L48.8053 21.6499L47.032 25.2372L45.1986 21.5894L46.9469 17.9516ZM48.665 33.0476C48.5999 33.1889 48.5148 33.31 48.4196 33.421C48.4046 33.4411 48.3845 33.4664 48.3695 33.4866C48.0389 33.8549 47.573 34.0668 47.0521 34.0718C46.8316 34.0769 46.6263 34.0365 46.4259 33.9659C46.3658 33.9406 46.3057 33.9205 46.2506 33.8902C46.2205 33.8751 46.1905 33.8599 46.1654 33.8448C45.9149 33.6934 45.6995 33.4815 45.5292 33.2091C45.1285 32.5632 45.0834 31.761 45.419 31.0698L47.027 27.7297L48.6901 31.0395C49.0107 31.6803 48.9906 32.4169 48.665 33.0476ZM49.9925 30.2474L48.109 26.4936L49.6569 23.3553L51.5103 27.0435L49.9925 30.2474ZM50.5034 21.6449L59.41 3.61245C59.6153 3.20377 59.8908 2.85059 60.2164 2.54786C61.3986 3.65786 61.7693 5.45909 61.0079 6.9929L52.3419 25.3028L50.5034 21.6449ZM54.3355 3.61245C54.7814 2.71436 55.5478 2.04836 56.4945 1.7305C57.271 1.46814 58.0975 1.47823 58.8589 1.74059C58.5383 2.09377 58.2628 2.49236 58.0474 2.93132L49.6469 19.9395L47.9137 16.4884L54.3355 3.61245ZM37.3641 1.72545C38.3109 2.04332 39.0773 2.70932 39.5231 3.6175L46.0151 16.3623L44.327 19.8739L35.8112 2.92627C35.5908 2.48227 35.3103 2.08873 34.9947 1.73555C35.3804 1.60436 35.7812 1.53373 36.1819 1.53373C36.5827 1.53373 36.9784 1.59932 37.3641 1.72545ZM27.576 4.10691C27.8916 3.15332 28.5528 2.38136 29.4444 1.93232C30.3711 1.46309 31.398 1.42273 32.3047 1.73555C30.8871 3.30468 30.4864 5.65081 31.4832 7.65386L40.8556 27.094L40.3496 28.1434C39.9739 28.9305 39.7385 29.7529 39.6083 30.5804L27.7813 6.97272C27.3355 6.07463 27.2604 5.0605 27.576 4.10691ZM52.0714 35.4644C50.9393 37.3211 49.1109 38.3857 47.0621 38.3857C45.0333 38.3857 43.22 37.3413 42.0828 35.5148C41.8975 35.2171 41.7472 34.9094 41.612 34.5966C41.602 34.5562 41.5969 34.5209 41.5819 34.4805L41.5268 34.3695C40.8305 32.5986 40.8806 30.6157 41.7172 28.8447L44.0665 33.7187C44.307 34.2181 44.6626 34.6319 45.0834 34.9447C45.1135 34.9649 45.1385 34.9851 45.1686 35.0052C45.2337 35.0506 45.2988 35.0961 45.3639 35.1364C45.8749 35.4543 46.4559 35.6309 47.0671 35.6309C48.2192 35.6309 49.2762 35.0204 49.9023 33.9961C50.0175 33.8095 50.1077 33.6127 50.1879 33.4109L52.3819 28.7741C53.4239 30.9285 53.3187 33.426 52.0714 35.4644ZM66.0823 6.97777L54.5009 30.5703C54.3656 29.6924 54.1101 28.8296 53.6994 28.0072L53.2034 27.0183L62.3704 7.65386C63.3673 5.64577 62.9715 3.29963 61.5539 1.72545C61.5589 1.72545 61.5639 1.72041 61.569 1.72041C62.5157 1.40255 63.5276 1.47823 64.4192 1.92727C66.2576 2.86068 67.004 5.12104 66.0823 6.97777Z" fill="#2B2B2B"/>
</svg>
